<?xml version="1.0" encoding="UTF-8"?>
<!DOCTYPE svg PUBLIC "-//W3C//DTD SVG 1.1//EN" "http://www.w3.org/Graphics/SVG/1.1/DTD/svg11.dtd">
<svg xmlns="http://www.w3.org/2000/svg" version="1.1" width="772px" height="727px" style="shape-rendering:geometricPrecision; text-rendering:geometricPrecision; image-rendering:optimizeQuality; fill-rule:evenodd; clip-rule:evenodd" xmlns:xlink="http://www.w3.org/1999/xlink">
<g><path style="opacity:1" fill="#171717" d="M 275.5,75.5 C 279.26,76.2662 283.093,77.2662 287,78.5C 288.03,78.1639 288.53,77.4972 288.5,76.5C 319.063,78.6993 346.729,88.366 371.5,105.5C 374.14,106.421 376.973,107.088 380,107.5C 381.699,107.613 382.866,106.947 383.5,105.5C 395.89,96.1378 409.557,89.1378 424.5,84.5C 427.228,84.8294 429.562,84.1628 431.5,82.5C 437.509,80.2154 443.843,78.8821 450.5,78.5C 452.199,78.6204 453.865,78.9537 455.5,79.5C 456.713,79.2528 457.38,78.5862 457.5,77.5C 474.189,74.8793 490.856,74.8793 507.5,77.5C 507.47,78.4972 507.97,79.1639 509,79.5C 511.434,78.6777 513.934,78.3444 516.5,78.5C 551.889,83.7029 583.889,96.8695 612.5,118C 613.823,118.816 614.489,119.983 614.5,121.5C 613.167,124.5 613.167,127.5 614.5,130.5C 614.414,131.496 614.748,132.329 615.5,133C 630.249,137.353 643.416,144.519 655,154.5C 657.689,158.545 659.856,162.879 661.5,167.5C 661.389,168.117 661.056,168.617 660.5,169C 661.764,171.958 663.098,174.791 664.5,177.5C 664.891,182.011 664.225,186.345 662.5,190.5C 662.667,191.167 662.833,191.833 663,192.5C 663.417,191.244 664.25,190.577 665.5,190.5C 665.333,209.503 665.5,228.503 666,247.5C 667.841,252.511 669.674,257.511 671.5,262.5C 670.624,262.369 669.957,262.702 669.5,263.5C 670.588,264.934 671.922,265.934 673.5,266.5C 676.003,270.507 677.67,274.84 678.5,279.5C 676.83,282.163 677.497,283.83 680.5,284.5C 687.002,300.162 691.502,316.495 694,333.5C 697.024,356.211 697.524,378.877 695.5,401.5C 694.007,402.312 693.34,403.645 693.5,405.5C 693.52,406.726 693.853,407.726 694.5,408.5C 693.471,420.338 691.471,432.005 688.5,443.5C 687.5,443.5 686.5,443.5 685.5,443.5C 685.325,445.621 685.659,447.621 686.5,449.5C 681.088,467.999 674.254,485.999 666,503.5C 665.333,526.167 665.333,548.833 666,571.5C 673.493,586.339 671.326,599.506 659.5,611C 651.203,615.913 642.536,616.747 633.5,613.5C 633.631,612.761 633.464,612.094 633,611.5C 631.989,612.337 630.822,612.67 629.5,612.5C 622.708,611.234 616.042,609.568 609.5,607.5C 607.466,605.293 605.133,604.626 602.5,605.5C 592.981,603.298 583.314,601.798 573.5,601C 563.706,596.421 553.373,594.088 542.5,594C 528.709,600.985 514.376,606.485 499.5,610.5C 498.053,609.115 497.053,609.448 496.5,611.5C 480.747,616.184 464.747,619.851 448.5,622.5C 445.612,621.99 443.279,622.656 441.5,624.5C 439.194,624.993 436.861,625.326 434.5,625.5C 434.666,635.839 434.5,646.172 434,656.5C 433.454,659.379 432.621,662.046 431.5,664.5C 430.761,664.369 430.094,664.536 429.5,665C 430.252,665.671 430.586,666.504 430.5,667.5C 428.91,672.688 426.743,677.688 424,682.5C 423.241,684.063 422.074,685.063 420.5,685.5C 419.25,685.423 418.417,684.756 418,683.5C 417.25,684.126 416.416,684.626 415.5,685C 417.063,685.759 418.063,686.926 418.5,688.5C 415.999,691.771 412.999,694.604 409.5,697C 408.255,697.791 406.922,698.291 405.5,698.5C 404.417,698.461 403.417,698.127 402.5,697.5C 401.614,698.325 401.281,699.325 401.5,700.5C 401.158,701.338 400.492,701.672 399.5,701.5C 398.778,701.082 398.278,700.416 398,699.5C 396.915,700.736 396.082,702.069 395.5,703.5C 384.704,706.612 373.704,707.279 362.5,705.5C 362.631,704.624 362.298,703.957 361.5,703.5C 358.318,703.052 355.651,701.718 353.5,699.5C 349.999,698.795 346.665,697.795 343.5,696.5C 342.833,696.167 342.167,695.833 341.5,695.5C 341.414,694.504 341.748,693.671 342.5,693C 340.188,691.011 337.522,689.844 334.5,689.5C 332.817,688.147 331.484,686.48 330.5,684.5C 330.715,682.821 330.048,681.821 328.5,681.5C 327.326,680.486 326.66,679.153 326.5,677.5C 329.379,674.969 328.712,673.969 324.5,674.5C 322.722,672.171 321.722,669.504 321.5,666.5C 321.539,665.417 321.873,664.417 322.5,663.5C 321.675,662.614 320.675,662.281 319.5,662.5C 318.859,656.342 318.193,650.175 317.5,644C 318.386,638.203 318.72,632.369 318.5,626.5C 311.439,626.758 304.772,625.258 298.5,622C 289.283,622.026 280.616,620.026 272.5,616C 270.08,615.71 267.746,615.21 265.5,614.5C 265.649,613.448 265.483,612.448 265,611.5C 262.959,612.423 260.792,612.756 258.5,612.5C 258.167,612.5 257.833,612.5 257.5,612.5C 256.448,610.744 254.781,610.077 252.5,610.5C 245.307,608.428 237.974,606.928 230.5,606C 222.991,601.745 215.324,597.745 207.5,594C 204.518,593.502 201.518,593.335 198.5,593.5C 194.833,593.5 191.167,593.5 187.5,593.5C 187.5,594.5 187.5,595.5 187.5,596.5C 187.167,596.5 186.833,596.5 186.5,596.5C 183.612,595.99 181.279,596.656 179.5,598.5C 178.609,599.11 177.609,599.443 176.5,599.5C 175.228,598.566 173.728,597.899 172,597.5C 169.757,598.512 167.924,599.845 166.5,601.5C 159.838,603.166 153.171,604.833 146.5,606.5C 146.565,606.062 146.399,605.728 146,605.5C 143.37,605.859 141.203,606.859 139.5,608.5C 129.057,611.777 118.39,614.11 107.5,615.5C 106.432,614.566 105.099,614.232 103.5,614.5C 103.5,613.5 103.5,612.5 103.5,611.5C 101.801,611.527 100.467,612.194 99.5,613.5C 95.2066,613.023 91.8733,611.023 89.5,607.5C 88.9247,604.046 87.258,601.379 84.5,599.5C 81.8578,590.2 82.6911,581.2 87,572.5C 87.8131,548.791 87.6465,525.124 86.5,501.5C 87.4345,500.432 87.7678,499.099 87.5,497.5C 86.5,497.5 85.5,497.5 84.5,497.5C 79.2671,487.154 74.6004,476.487 70.5,465.5C 71.4614,463.735 71.7947,461.735 71.5,459.5C 70.5,459.5 69.5,459.5 68.5,459.5C 65.7421,452.049 63.7421,444.383 62.5,436.5C 64.9816,434.949 64.6483,433.616 61.5,432.5C 49.2532,371.473 56.5865,313.139 83.5,257.5C 84.5,257.5 85.5,257.5 86.5,257.5C 85.7659,256.292 85.4326,254.959 85.5,253.5C 85.7086,252.078 86.2086,250.745 87,249.5C 87.1861,225.457 87.6861,201.457 88.5,177.5C 90.2798,176.01 90.9465,174.01 90.5,171.5C 90.3433,170.127 90.51,168.793 91,167.5C 92.9021,163.261 95.2354,159.261 98,155.5C 101.167,152.333 104.333,149.167 107.5,146C 117.485,140.256 127.819,135.256 138.5,131C 135.52,126.194 136.187,121.861 140.5,118C 155.301,106.374 171.634,97.5406 189.5,91.5C 191.38,91.7709 192.713,91.1042 193.5,89.5C 198.636,87.2687 203.97,85.6021 209.5,84.5C 210.496,84.4142 211.329,84.7476 212,85.5C 212.464,84.9056 212.631,84.2389 212.5,83.5C 223.557,80.0892 234.89,78.0892 246.5,77.5C 246.821,79.0481 247.821,79.7148 249.5,79.5C 249.5,78.5 249.5,77.5 249.5,76.5C 257.986,75.7574 266.652,75.4241 275.5,75.5 Z M 515.5,426.5 C 526.814,408.922 534.814,391.422 539.5,374C 541.125,373.147 541.458,372.147 540.5,371C 545.066,358.472 547.566,345.972 548,333.5C 551.542,274.739 531.708,225.405 488.5,185.5C 440.587,147.88 386.587,136.713 326.5,152C 260.199,174.151 220.032,219.984 206,289.5C 200.656,327.15 205.822,362.817 221.5,396.5C 235.985,432.986 260.318,460.819 294.5,480C 305.75,485.194 317.084,490.194 328.5,495C 328.735,502.71 328.402,510.544 327.5,518.5C 294.697,499.373 260.031,493.039 223.5,499.5C 207.761,501.581 192.594,506.247 178,513.5C 170.084,516.297 162.417,520.297 155,525.5C 154.667,525.167 154.333,524.833 154,524.5C 153.385,526.116 152.385,527.449 151,528.5C 149.345,504.981 149.012,481.314 150,457.5C 159.227,449.252 169.227,443.585 180,440.5C 181.579,438.959 183.413,437.792 185.5,437C 193.57,433.926 201.403,432.093 209,431.5C 213.746,429.355 216.579,425.688 217.5,420.5C 215.008,413.92 210.341,411.753 203.5,414C 184.522,418.046 166.522,424.546 149.5,433.5C 149.334,423.161 149.5,412.828 150,402.5C 156.437,397.238 163.937,392.738 172.5,389C 177.351,387.97 182.185,386.136 187,383.5C 188.147,384.458 189.147,384.125 190,382.5C 190.333,382.833 190.667,383.167 191,383.5C 197.049,378.543 197.883,372.877 193.5,366.5C 190.897,365.438 188.23,365.272 185.5,366C 173.39,369.478 161.89,374.311 151,380.5C 150.5,380 150,379.5 149.5,379C 149.233,370.685 149.566,362.185 150.5,353.5C 151.942,351.176 153.608,349.842 155.5,349.5C 155.833,350.833 156.167,350.833 156.5,349.5C 160.224,346.302 164.391,343.635 169,341.5C 174.458,339.445 180.291,337.278 186.5,335C 190.432,329.598 190.432,324.264 186.5,319C 184.5,318.333 182.5,318.333 180.5,319C 170.125,322.01 160.292,326.177 151,331.5C 149.297,321.711 149.13,312.044 150.5,302.5C 155.302,298.113 160.302,294.613 165.5,292C 171.434,289.432 176.934,286.932 182,284.5C 183.333,284.5 184.667,284.5 186,284.5C 191.904,282.097 195.404,277.764 196.5,271.5C 196.167,268.99 195.167,266.823 193.5,265C 189.796,264.196 186.296,264.696 183,266.5C 182.667,266.167 182.333,265.833 182,265.5C 171.94,269.892 161.606,274.559 151,279.5C 149.416,270.242 149.083,260.909 150,251.5C 150.915,250.672 151.581,249.672 152,248.5C 165.507,239.08 180.34,231.913 196.5,227C 202.325,225.51 207.992,224.01 213.5,222.5C 217.471,218.776 218.638,214.442 217,209.5C 215.745,207.406 213.912,206.406 211.5,206.5C 190.831,209.732 170.831,216.732 151.5,227.5C 150.702,225.922 150.202,224.256 150,222.5C 149.333,214.5 149.333,206.5 150,198.5C 154.507,194.722 159.007,191.722 163.5,189.5C 163.833,190.833 164.167,190.833 164.5,189.5C 170.566,185.393 176.732,182.06 183,179.5C 196.098,174.181 209.598,170.015 223.5,167C 224.878,165.287 226.545,163.953 228.5,163C 228.5,160.667 228.5,158.333 228.5,156C 226.319,154.16 223.819,152.993 221,152.5C 196.46,156.254 173.294,163.921 151.5,175.5C 150.914,175.291 150.414,174.957 150,174.5C 149.174,163.326 149.341,152.326 150.5,141.5C 151.373,139.114 152.873,137.114 155,135.5C 173.832,122.598 194.832,112.598 218,105.5C 227.104,103.348 236.604,101.515 246.5,100C 283.107,95.1181 317.107,101.451 348.5,119C 354.057,122.604 359.391,126.437 364.5,130.5C 372.225,129.638 379.892,129.638 387.5,130.5C 388.814,129.687 389.981,128.687 391,127.5C 391.333,127.833 391.667,128.167 392,128.5C 392.442,126.321 393.442,125.655 395,126.5C 395.724,124.041 397.057,123.041 399,123.5C 400.003,120.844 401.67,119.844 404,120.5C 405.365,118.14 407.365,116.473 410,115.5C 411.016,116.634 411.683,116.301 412,114.5C 413.016,115.634 413.683,115.301 414,113.5C 415.016,114.634 415.683,114.301 416,112.5C 417.016,113.634 417.683,113.301 418,111.5C 418.333,111.833 418.667,112.167 419,112.5C 420.335,110.395 422.002,109.729 424,110.5C 425.335,108.395 427.002,107.729 429,108.5C 432.202,106.428 435.702,104.928 439.5,104C 470.502,96.7275 501.835,97.0608 533.5,105C 559.218,112.274 582.384,124.107 603,140.5C 603.976,152.656 603.643,164.656 602,176.5C 579.382,162.85 554.882,155.016 528.5,153C 523.419,157.489 523.252,162.322 528,167.5C 528.333,167.167 528.667,166.833 529,166.5C 532.398,167.682 535.731,169.016 539,170.5C 539.333,170.167 539.667,169.833 540,169.5C 545.021,170.701 550.021,172.701 555,175.5C 571.881,179.604 587.881,187.604 603,199.5C 603.667,209.167 603.667,218.833 603,228.5C 583.539,216.356 562.373,209.189 539.5,207C 534.351,212.496 534.685,217.829 540.5,223C 551.409,225.724 562.075,229.058 572.5,233C 577.975,235.827 583.142,238.327 588,240.5C 593.393,243.69 598.393,247.357 603,251.5C 603.5,260.827 603.666,270.161 603.5,279.5C 591.193,273.977 578.36,268.644 565,263.5C 563.197,263.094 561.364,263.594 559.5,265C 554.863,270.598 555.53,275.931 561.5,281C 568.209,283.168 574.042,286.001 579,289.5C 579.333,289.167 579.667,288.833 580,288.5C 587.971,292.364 595.637,297.364 603,303.5C 603.5,312.494 603.666,321.494 603.5,330.5C 598.501,328.584 593.668,326.251 589,323.5C 588.667,323.833 588.333,324.167 588,324.5C 582.288,322.155 576.622,319.822 571,317.5C 565.409,318.129 562.909,321.296 563.5,327C 563.147,330.2 564.147,332.867 566.5,335C 568.587,335.792 570.421,336.959 572,338.5C 582.683,340.245 592.849,345.245 602.5,353.5C 603.665,362.482 603.832,371.482 603,380.5C 590.333,373.608 576.999,368.275 563,364.5C 558.392,365.71 556.226,368.71 556.5,373.5C 556.383,376.597 557.383,379.264 559.5,381.5C 567.484,384.509 575.818,387.675 584.5,391C 591.159,394.626 597.159,398.459 602.5,402.5C 603.666,413.151 603.832,423.818 603,434.5C 583.511,422.28 562.344,415.614 539.5,414.5C 537.358,416.57 536.024,419.07 535.5,422C 536.676,424.686 538.343,427.019 540.5,429C 552.213,432.598 563.546,436.264 574.5,440C 580.924,443.629 587.424,447.129 594,450.5C 597.362,452.35 600.362,454.683 603,457.5C 603.667,481.167 603.667,504.833 603,528.5C 559.61,499.687 512.61,490.687 462,501.5C 449.237,505.966 437.071,511.632 425.5,518.5C 424.335,510.521 424.168,502.521 425,494.5C 426.518,494.943 427.685,494.276 428.5,492.5C 429.086,492.709 429.586,493.043 430,493.5C 431.335,491.395 433.002,490.729 435,491.5C 436.335,489.395 438.002,488.729 440,489.5C 445.638,486.452 451.638,483.119 458,479.5C 459,479.5 460,479.5 461,479.5C 461.374,478.584 461.874,477.75 462.5,477C 484.684,464.644 502.35,447.81 515.5,426.5 Z M 134.5,159.5 C 135.302,160.952 135.802,162.618 136,164.5C 136.454,281.501 136.121,398.501 135,515.5C 125.648,510.83 117.648,504.497 111,496.5C 110.493,427 109.993,357.5 109.5,288C 109.308,254.447 109.975,220.947 111.5,187.5C 111.965,177.917 116.798,169.917 126,163.5C 126.333,163.833 126.667,164.167 127,164.5C 129.231,162.376 131.731,160.709 134.5,159.5 Z M 617.5,159.5 C 618.678,160.662 619.845,161.662 621,162.5C 632.806,165.754 640.306,174.587 643.5,189C 643.66,291.019 643.493,393.186 643,495.5C 640.203,499.299 637.036,502.799 633.5,506C 628.028,509.479 622.861,513.313 618,517.5C 617.5,398.167 617.333,278.834 617.5,159.5 Z M 366.5,181.5 C 420.089,181.041 461.589,203.041 491,247.5C 519.133,301.174 515.133,352.174 479,400.5C 447.704,434.496 408.87,449.663 362.5,446C 293.789,435.622 253.955,396.122 243,327.5C 240.322,268.591 264.489,224.757 315.5,196C 331.871,188.495 348.871,183.661 366.5,181.5 Z M 393.5,484.5 C 394.494,493.652 394.827,502.985 394.5,512.5C 393.209,512.737 392.209,512.404 391.5,511.5C 393.471,502.895 394.138,493.895 393.5,484.5 Z M 236.5,517.5 C 261.347,515.215 285.013,519.381 307.5,530C 310.968,531.97 314.301,534.136 317.5,536.5C 318.498,544.807 318.831,553.14 318.5,561.5C 303.557,553.573 287.723,547.906 271,544.5C 270.127,544.735 269.293,545.069 268.5,545.5C 264.88,543.634 261.047,542.301 257,541.5C 219.995,540.879 183.495,545.713 147.5,556C 173.339,534.331 203.006,521.498 236.5,517.5 Z M 603.5,555.5 C 565.274,543.611 526.274,539.777 486.5,544C 467.789,546.792 450.289,552.959 434,562.5C 433.333,554.167 433.333,545.833 434,537.5C 450.242,525.889 468.409,519.389 488.5,518C 532.259,514.643 570.593,527.143 603.5,555.5 Z M 361.5,534.5 C 372.222,534.125 382.889,534.625 393.5,536C 400.026,538.526 404.526,543.026 407,549.5C 407.667,582.833 407.667,616.167 407,649.5C 403.693,663.589 394.86,671.922 380.5,674.5C 362.827,674.896 351.327,666.563 346,649.5C 344.29,615.506 344.29,581.506 346,547.5C 349.258,540.73 354.425,536.397 361.5,534.5 Z"/></g>
<g><path style="opacity:1" fill="#0b2752" d="M 275.5,75.5 C 279.881,75.3718 284.215,75.7051 288.5,76.5C 288.53,77.4972 288.03,78.1639 287,78.5C 283.093,77.2662 279.26,76.2662 275.5,75.5 Z"/></g>
<g><path style="opacity:1" fill="#0f114d" d="M 249.5,76.5 C 249.5,77.5 249.5,78.5 249.5,79.5C 247.821,79.7148 246.821,79.0481 246.5,77.5C 247.209,76.596 248.209,76.2627 249.5,76.5 Z"/></g>
<g><path style="opacity:1" fill="#1c0b4d" d="M 507.5,77.5 C 510.713,77.19 513.713,77.5233 516.5,78.5C 513.934,78.3444 511.434,78.6777 509,79.5C 507.97,79.1639 507.47,78.4972 507.5,77.5 Z"/></g>
<g><path style="opacity:1" fill="#06104e" d="M 450.5,78.5 C 452.607,77.5318 454.941,77.1984 457.5,77.5C 457.38,78.5862 456.713,79.2528 455.5,79.5C 453.865,78.9537 452.199,78.6204 450.5,78.5 Z"/></g>
<g><path style="opacity:1" fill="#012151" d="M 431.5,82.5 C 429.562,84.1628 427.228,84.8294 424.5,84.5C 426.599,83.3882 428.933,82.7215 431.5,82.5 Z"/></g>
<g><path style="opacity:1" fill="#001055" d="M 209.5,84.5 C 210.209,83.596 211.209,83.2627 212.5,83.5C 212.631,84.2389 212.464,84.9056 212,85.5C 211.329,84.7476 210.496,84.4142 209.5,84.5 Z"/></g>
<g><path style="opacity:1" fill="#00125f" d="M 193.5,89.5 C 192.713,91.1042 191.38,91.7709 189.5,91.5C 190.514,90.3263 191.847,89.6596 193.5,89.5 Z"/></g>
<g><path style="opacity:1" fill="#041753" d="M 371.5,105.5 C 375.68,105.762 379.68,105.762 383.5,105.5C 382.866,106.947 381.699,107.613 380,107.5C 376.973,107.088 374.14,106.421 371.5,105.5 Z"/></g>
<g><path style="opacity:1" fill="#141357" d="M 614.5,121.5 C 616.823,124.33 616.823,127.33 614.5,130.5C 613.167,127.5 613.167,124.5 614.5,121.5 Z"/></g>
<g><path style="opacity:1" fill="#071953" d="M 661.5,167.5 C 663.41,170.452 664.41,173.786 664.5,177.5C 663.098,174.791 661.764,171.958 660.5,169C 661.056,168.617 661.389,168.117 661.5,167.5 Z"/></g>
<g><path style="opacity:1" fill="#051759" d="M 90.5,171.5 C 90.9465,174.01 90.2798,176.01 88.5,177.5C 88.2594,175.102 88.9261,173.102 90.5,171.5 Z"/></g>
<g><path style="opacity:1" fill="#04184b" d="M 664.5,177.5 C 665.485,181.634 665.818,185.968 665.5,190.5C 664.25,190.577 663.417,191.244 663,192.5C 662.833,191.833 662.667,191.167 662.5,190.5C 664.225,186.345 664.891,182.011 664.5,177.5 Z"/></g>
<g><path style="opacity:1" fill="#0a1027" d="M 409.5,203.5 C 402.011,204.329 394.344,204.829 386.5,205C 385.956,205.717 385.289,206.217 384.5,206.5C 384.859,204.629 385.859,203.129 387.5,202C 394.92,201.302 402.253,201.802 409.5,203.5 Z"/></g>
<g><path style="opacity:1" fill="#252627" d="M 409.5,203.5 C 462.457,221.193 490.791,258.026 494.5,314C 494.018,325.394 492.184,336.561 489,347.5C 482.667,356.833 476.333,356.833 470,347.5C 480.463,306.235 470.296,271.068 439.5,242C 423.859,229.514 406.193,221.347 386.5,217.5C 383.59,214.1 382.923,210.433 384.5,206.5C 385.289,206.217 385.956,205.717 386.5,205C 394.344,204.829 402.011,204.329 409.5,203.5 Z"/></g>
<g><path style="opacity:1" fill="#061052" d="M 85.5,253.5 C 85.4326,254.959 85.7659,256.292 86.5,257.5C 85.5,257.5 84.5,257.5 83.5,257.5C 83.9887,256.005 84.6554,254.671 85.5,253.5 Z"/></g>
<g><path style="opacity:1" fill="#000b53" d="M 86.5,257.5 C 88.2252,257.843 88.7252,258.843 88,260.5C 87.4867,259.473 86.9867,258.473 86.5,257.5 Z"/></g>
<g><path style="opacity:1" fill="#262627" d="M 380.5,257.5 C 386.491,259.62 392.824,261.453 399.5,263C 404.13,266.482 407.797,269.982 410.5,273.5C 411.873,273.343 413.207,273.51 414.5,274C 417.682,279.329 421.348,284.162 425.5,288.5C 436.425,312.659 432.425,334.159 413.5,353C 392.755,368.574 370.755,370.574 347.5,359C 333.77,350.048 325.103,337.548 321.5,321.5C 321.82,311.794 323.32,302.128 326,292.5C 329.406,290.021 330.906,286.688 330.5,282.5C 338.187,268.963 349.854,260.796 365.5,258C 370.489,257.501 375.489,257.334 380.5,257.5 Z"/></g>
<g><path style="opacity:1" fill="#131928" d="M 380.5,257.5 C 401.577,259.192 416.577,269.525 425.5,288.5C 421.348,284.162 417.682,279.329 414.5,274C 413.207,273.51 411.873,273.343 410.5,273.5C 407.797,269.982 404.13,266.482 399.5,263C 392.824,261.453 386.491,259.62 380.5,257.5 Z"/></g>
<g><path style="opacity:1" fill="#120f52" d="M 671.5,262.5 C 672.674,263.514 673.34,264.847 673.5,266.5C 671.922,265.934 670.588,264.934 669.5,263.5C 669.957,262.702 670.624,262.369 671.5,262.5 Z"/></g>
<g><path style="opacity:1" fill="#0a1051" d="M 678.5,279.5 C 679.931,280.78 680.598,282.447 680.5,284.5C 677.497,283.83 676.83,282.163 678.5,279.5 Z"/></g>
<g><path style="opacity:1" fill="#111728" d="M 330.5,282.5 C 330.906,286.688 329.406,290.021 326,292.5C 323.32,302.128 321.82,311.794 321.5,321.5C 320.649,313.568 321.149,305.568 323,297.5C 324.476,291.881 326.976,286.881 330.5,282.5 Z"/></g>
<g><path style="opacity:1" fill="#000b4f" d="M 64.5,333.5 C 64.56,332.957 64.8933,332.624 65.5,332.5C 66.6139,333.723 66.7805,335.056 66,336.5C 65.7679,335.263 65.2679,334.263 64.5,333.5 Z"/></g>
<g><path style="opacity:1" fill="#110c4f" d="M 695.5,401.5 C 695.702,403.95 695.369,406.283 694.5,408.5C 693.853,407.726 693.52,406.726 693.5,405.5C 693.34,403.645 694.007,402.312 695.5,401.5 Z"/></g>
<g><path style="opacity:1" fill="#030547" d="M 72.5,418.5 C 72.56,417.957 72.8933,417.624 73.5,417.5C 74.5827,418.365 74.7494,419.365 74,420.5C 73.7216,419.584 73.2216,418.918 72.5,418.5 Z"/></g>
<g><path style="opacity:1" fill="#1c0947" d="M 61.5,432.5 C 64.6483,433.616 64.9816,434.949 62.5,436.5C 62.1667,435.167 61.8333,433.833 61.5,432.5 Z"/></g>
<g><path style="opacity:1" fill="#0a0e50" d="M 688.5,443.5 C 688.125,445.698 687.458,447.698 686.5,449.5C 685.659,447.621 685.325,445.621 685.5,443.5C 686.5,443.5 687.5,443.5 688.5,443.5 Z"/></g>
<g><path style="opacity:1" fill="#140244" d="M 72.5,450.5 C 74.337,450.639 74.6704,451.306 73.5,452.5C 72.7025,452.043 72.3691,451.376 72.5,450.5 Z"/></g>
<g><path style="opacity:1" fill="#080552" d="M 68.5,459.5 C 69.5,459.5 70.5,459.5 71.5,459.5C 71.7947,461.735 71.4614,463.735 70.5,465.5C 70.0293,463.421 69.3627,461.421 68.5,459.5 Z"/></g>
<g><path style="opacity:1" fill="#f8fdfc" d="M 370.5,478.5 C 373.5,478.5 376.5,478.5 379.5,478.5C 380.919,479.451 382.585,479.784 384.5,479.5C 385.209,480.404 386.209,480.737 387.5,480.5C 387.842,481.338 388.508,481.672 389.5,481.5C 389.842,482.338 390.508,482.672 391.5,482.5C 392.167,483.167 392.833,483.833 393.5,484.5C 394.138,493.895 393.471,502.895 391.5,511.5C 380.833,511.5 370.167,511.5 359.5,511.5C 359.5,502.167 359.5,492.833 359.5,483.5C 360.167,483.5 360.5,483.167 360.5,482.5C 361.167,482.5 361.5,482.167 361.5,481.5C 362.791,481.737 363.791,481.404 364.5,480.5C 365.492,480.672 366.158,480.338 366.5,479.5C 368.099,479.768 369.432,479.434 370.5,478.5 Z"/></g>
<g><path style="opacity:1" fill="#0f0a54" d="M 84.5,497.5 C 85.5,497.5 86.5,497.5 87.5,497.5C 87.7678,499.099 87.4345,500.432 86.5,501.5C 85.3263,500.486 84.6596,499.153 84.5,497.5 Z"/></g>
<g><path style="opacity:1" fill="#071153" d="M 198.5,593.5 C 195.084,595.024 191.417,596.024 187.5,596.5C 187.5,595.5 187.5,594.5 187.5,593.5C 191.167,593.5 194.833,593.5 198.5,593.5 Z"/></g>
<g><path style="opacity:1" fill="#12115b" d="M 186.5,596.5 C 184.343,597.407 182.01,598.073 179.5,598.5C 181.279,596.656 183.612,595.99 186.5,596.5 Z"/></g>
<g><path style="opacity:1" fill="#0c1151" d="M 176.5,599.5 C 173.211,600.374 169.877,601.041 166.5,601.5C 167.924,599.845 169.757,598.512 172,597.5C 173.728,597.899 175.228,598.566 176.5,599.5 Z"/></g>
<g><path style="opacity:1" fill="#0a1155" d="M 84.5,599.5 C 87.258,601.379 88.9247,604.046 89.5,607.5C 87.0499,605.371 85.3833,602.704 84.5,599.5 Z"/></g>
<g><path style="opacity:1" fill="#081956" d="M 146.5,606.5 C 144.343,607.407 142.01,608.073 139.5,608.5C 141.203,606.859 143.37,605.859 146,605.5C 146.399,605.728 146.565,606.062 146.5,606.5 Z"/></g>
<g><path style="opacity:1" fill="#011860" d="M 609.5,607.5 C 606.848,607.59 604.515,606.924 602.5,605.5C 605.133,604.626 607.466,605.293 609.5,607.5 Z"/></g>
<g><path style="opacity:1" fill="#011a60" d="M 252.5,610.5 C 254.781,610.077 256.448,610.744 257.5,612.5C 255.694,611.976 254.028,611.309 252.5,610.5 Z"/></g>
<g><path style="opacity:1" fill="#001556" d="M 499.5,610.5 C 498.609,611.11 497.609,611.443 496.5,611.5C 497.053,609.448 498.053,609.115 499.5,610.5 Z"/></g>
<g><path style="opacity:1" fill="#0d1152" d="M 265.5,614.5 C 263.048,613.935 260.715,613.268 258.5,612.5C 260.792,612.756 262.959,612.423 265,611.5C 265.483,612.448 265.649,613.448 265.5,614.5 Z"/></g>
<g><path style="opacity:1" fill="#140e57" d="M 633.5,613.5 C 631.901,613.768 630.568,613.434 629.5,612.5C 630.822,612.67 631.989,612.337 633,611.5C 633.464,612.094 633.631,612.761 633.5,613.5 Z"/></g>
<g><path style="opacity:1" fill="#091a53" d="M 107.5,615.5 C 104.505,615.706 101.838,615.04 99.5,613.5C 100.467,612.194 101.801,611.527 103.5,611.5C 103.5,612.5 103.5,613.5 103.5,614.5C 105.099,614.232 106.432,614.566 107.5,615.5 Z"/></g>
<g><path style="opacity:1" fill="#141561" d="M 448.5,622.5 C 446.285,623.268 443.952,623.935 441.5,624.5C 443.279,622.656 445.612,621.99 448.5,622.5 Z"/></g>
<g><path style="opacity:1" fill="#100956" d="M 319.5,662.5 C 320.675,662.281 321.675,662.614 322.5,663.5C 321.873,664.417 321.539,665.417 321.5,666.5C 320.655,665.329 319.989,663.995 319.5,662.5 Z"/></g>
<g><path style="opacity:1" fill="#031f60" d="M 431.5,664.5 C 431.737,665.791 431.404,666.791 430.5,667.5C 430.586,666.504 430.252,665.671 429.5,665C 430.094,664.536 430.761,664.369 431.5,664.5 Z"/></g>
<g><path style="opacity:1" fill="#0e0455" d="M 324.5,674.5 C 328.712,673.969 329.379,674.969 326.5,677.5C 325.599,676.71 324.932,675.71 324.5,674.5 Z"/></g>
<g><path style="opacity:1" fill="#001458" d="M 328.5,681.5 C 330.048,681.821 330.715,682.821 330.5,684.5C 329.599,683.71 328.932,682.71 328.5,681.5 Z"/></g>
<g><path style="opacity:1" fill="#120444" d="M 334.5,682.5 C 336.337,682.639 336.67,683.306 335.5,684.5C 334.702,684.043 334.369,683.376 334.5,682.5 Z"/></g>
<g><path style="opacity:1" fill="#011f4e" d="M 420.5,685.5 C 420.573,687.027 419.906,688.027 418.5,688.5C 418.063,686.926 417.063,685.759 415.5,685C 416.416,684.626 417.25,684.126 418,683.5C 418.417,684.756 419.25,685.423 420.5,685.5 Z"/></g>
<g><path style="opacity:1" fill="#081250" d="M 334.5,689.5 C 337.522,689.844 340.188,691.011 342.5,693C 341.748,693.671 341.414,694.504 341.5,695.5C 338.568,694.2 336.234,692.2 334.5,689.5 Z"/></g>
<g><path style="opacity:1" fill="#110f48" d="M 405.5,698.5 C 404.486,699.674 403.153,700.34 401.5,700.5C 401.281,699.325 401.614,698.325 402.5,697.5C 403.417,698.127 404.417,698.461 405.5,698.5 Z"/></g>
<g><path style="opacity:1" fill="#0b0c50" d="M 343.5,696.5 C 346.665,697.795 349.999,698.795 353.5,699.5C 355.651,701.718 358.318,703.052 361.5,703.5C 362.298,703.957 362.631,704.624 362.5,705.5C 355.677,703.452 349.344,700.452 343.5,696.5 Z"/></g>
<g><path style="opacity:1" fill="#0e1a56" d="M 399.5,701.5 C 398.486,702.674 397.153,703.34 395.5,703.5C 396.082,702.069 396.915,700.736 398,699.5C 398.278,700.416 398.778,701.082 399.5,701.5 Z"/></g>
</svg>
